<?xml version="1.0" encoding="UTF-8"?><svg id="a" xmlns="http://www.w3.org/2000/svg" viewBox="0 0 792 792"><defs><style>.c{fill:#252a26;}.c,.d,.e,.f{stroke-width:0px;}.d{fill:#872237;}.e{fill:#f1f2f2;}.f{fill:#fff;}</style></defs><path class="f" d="M263.61,648.53c-8.91,0-17.6-.07-26.01-.13-8.43-.07-17.15-.13-26.12-.13-5.69,0-11,.03-16.2.08l-2.75-13.53c-1.67-10.19-34.33-207.03-66.95-270.67,10.05.05,21.52.07,29.71.08,4.45,0,7.93.02,9.69.02,10.99.05,19.53.07,26.28.07,14.87,0,20.88-.11,25.34-.28.48-.02.97-.03,1.45-.03,2.34,0,3.42,0,4.99,3.63.92,2.35,28.22,73.46,62.61,270.38.69,3.94-.86,7.93-3.9,10.41-5.81.07-11.77.11-18.15.11Z"/><path class="c" d="M216.78,371.13c3.33,8.97,29.54,82.92,61.89,268.1.13.74.04,1.48-.24,2.15-4.76.05-9.66.07-14.83.07-8.88,0-17.57-.07-25.96-.13-8.45-.07-17.19-.13-26.18-.13-3.6,0-7.04.01-10.4.03l-1.56-7.67c-1.83-11.12-31.49-189.44-62.78-262.26,6.68.02,13.24.03,18.46.04,4.48,0,7.99.02,9.76.02,10.92.05,19.52.07,26.29.07,14.91,0,21.02-.11,25.55-.29M218.05,356.92c-.58,0-1.15.02-1.72.04-4.69.18-11.02.28-25.09.28-6.74,0-15.26-.02-26.23-.07-7.21-.03-43.16-.05-56.35-.24,0,0,8.6,6.59,10.24,9.72,32.76,62.82,66.66,269.44,66.66,269.44l2.87,14.15c.61,3.02,3.27,5.18,6.34,5.18.01,0,.03,0,.04,0,5.74-.06,11.26-.09,16.64-.09,17.88,0,34.27.27,52.14.27,6.54,0,13.29-.04,20.38-.13,6.5-3.82,9.95-11.27,8.65-18.69-34.9-199.82-62.82-271.34-63.05-271.87-3.03-7.04-7.25-8-11.54-8h0Z"/><path class="c" d="M564.78,657.63c-14.6,57.22-52.5,92.04-108.35,108.75-23.49,7.03-47.64,10.07-72.12,10.08-120.43.07-240.84.03-361.27.03h-1.08c-3.33,0-6.03-2.7-6.03-6.03V104.72c-.08,0-.18.01-.27.01.03-10.27.08-20.9.12-32.08.06-16.34-.98-32.12-4.25-47.6l-1.36-7.87c-.15-.88.52-1.68,1.41-1.68h299.62c1.48,0,2,1.97.7,2.69-9.67,5.31-30.2,17.8-41,24.9-2.98,1.96-8.07,5.66-13.34,10.21-15.65,13.52-34.78,22.37-55.46,22.35l-125.62-.1c-.79,0-1.43.64-1.43,1.43v94.45c0,.79-.03,3.68-.03,5.32v247.55c0,3.28,2.69,5.98,5.97,6.03.19,0,.38,0,.58,0,33.91.01,11.97.08,46.17.08,2.13,0,6.22,1.48,6.72,3.56,2.22,9.3,2.18,7.76,5.57,20.35,1.05,3.91,4.11,15.79,5.6,23.39.56,2.84-2.73,5.48-5.62,5.48h-9.03c-34.16,0-15.38-.06-49.54-.06h0c-3.33,0-6.03,2.7-6.03,6.03v230.33c0,2.53,2.06,4.6,4.6,4.6h.84c95.47,0,190.95.11,286.42-.09,22.16-.04,44.18-2.16,65.56-8.65,36.86-11.2,62.17-33.91,71.9-71.87,5.59-21.8,6.01-43.93,2.69-66.09-6.13-40.9-28.16-69.16-67.71-83.26-4.32-1.54-9.45-2.84-14.52-3.97-5.41-1.21-7.95-7.44-4.94-12.11l21.71-33.65c2.46-4.17,7.19-6.42,11.98-5.7h.12c3.04.47,6.1,1.07,8.93,2.26,4.27,1.78,32.13,15.28,39.09,19.89,30.47,20.14,50.85,47.46,60.88,82.15,10.98,37.93,11.6,76.39,1.84,114.64Z"/><path class="d" d="M686.09,361.77c-6.68-.09-10.64-.12-11.72-6.64,0,0-6.61-30.74-8.28-42.4-.31-2.15,1.36-4.08,3.54-4.09,12.24-.07,48.88.22,46.74.22V67.91h-5.44c-95.47,0-190.95-.11-286.42.08-22.16.04-44.18,2.16-65.56,8.65-36.86,11.2-62.17,33.91-71.9,71.87-5.59,21.8-6.01,43.94-2.69,66.09,6.13,40.9,28.16,69.16,67.71,83.26,21.86,7.8,44.52,10.48,67.46,10.89-.02.03-.06.08-.08.11h91.27c12.24,0,24.12-1.64,31.25,5.49,5.74,9.83,9.2,23.76,9.2,23.76l5.22,23.55s-36.25-.06-53.89-.07v.12c0,.19-10.85.23-26.01.18l-176.44,289.01c-2.91,3.04-5.75,4.42-8.55,4.71l-98.48-.22,8.28-12.9,171.14-283.22c-3.4-.47-6.71-.96-10-1.5-25.93-4.31-50.48-12.38-72.73-26.63-30.76-19.7-50.85-47.46-60.88-82.14-10.98-37.93-11.6-76.4-1.84-114.65,14.6-57.21,52.5-92.03,108.35-108.75,23.49-7.02,47.64-10.07,72.12-10.08,120.43-.06,240.84-.02,361.27-.02h7.11v671.76s.19,20.89.14,32.07c-.07,16.34.98,32.12,4.24,47.6l1.64,9.54h-306.93s22.71-12.29,38.49-21.78c5.81-3.49,11.2-7.61,16.11-12.28.14-.14.29-.28.44-.41,17.34-16.51,40.38-25.69,64.33-25.67l122.42.1v-98.42h.03v-256.05"/><path class="e" d="M650.25,427.65c-8.88,0-17.55-.07-25.93-.13-8.4-.07-17.1-.13-26.02-.13-5.92,0-11.28.03-16.37.08l-2.78-13.66c-.16-.8-16.58-82.49-34.94-158.31l-4.03-16.66-35.85,58.93-91.49-.48,79.91-134.25,11.8-19.49,49.32-.16c9.82.04,17.62.06,23.9.06,11.72,0,18.59-.07,23.63-.23h4.92c1.01.12,2.07.53,3.39,3.6.06.16.19.48.38.99,2.93,7.9,29.61,82.69,62.21,269.31.1.62.16,1.27.16,1.9,0,3.31-1.52,6.45-4.06,8.52-5.8.07-11.76.11-18.14.11Z"/><path class="c" d="M603.45,150.31c2.99,8.08,29.42,82.38,61.85,267.99.04.25.06.5.06.73,0,.51-.1,1.01-.29,1.47-4.75.05-9.64.07-14.8.07-8.86,0-17.51-.07-25.89-.13-8.42-.07-17.13-.13-26.09-.13-3.74,0-7.25.01-10.59.03l-1.61-7.9c-.16-.82-16.61-82.65-35.01-158.6l-8.07-33.32-17.81,29.29-24.86,40.87-75.09-.4,73.54-123.56,9.74-16.08,45.29-.15c9.85.04,17.68.06,23.93.06,11.73,0,18.64-.07,23.76-.23h1.94M606.71,136.13h-5.43c-4.57.16-10.99.24-23.52.24-6.27,0-14.06-.02-23.92-.06l-51.7.17s-.08.01-.11.03c-1.19.26-2.02,1.03-2.72,2.01,0,0-8.77,14.48-12.65,20.9l-82.72,138.98c-1.56,2.62.32,5.94,3.37,5.95l98.77.52c1.38,0,2.67-.71,3.39-1.9l27.86-45.8c18.54,76.55,34.88,158.05,34.88,158.05l2.88,14.15c.61,3.02,3.26,5.19,6.33,5.19.02,0,.03,0,.05,0,5.81-.07,11.39-.09,16.84-.09,17.81,0,34.15.27,51.97.27,6.53,0,13.27-.04,20.35-.13,5.59-3.29,8.92-9.25,8.92-15.58,0-1.03-.09-2.08-.27-3.12-32.33-185.07-58.66-260.08-62.55-270.57-.31-.83-.48-1.26-.5-1.3-2.54-5.93-5.95-7.54-9.52-7.91h0Z"/></svg>