<?xml version="1.0" encoding="UTF-8"?><svg id="a" xmlns="http://www.w3.org/2000/svg" viewBox="0 0 792 192.33"><defs><style>.d{letter-spacing:0em;}.e{letter-spacing:0em;}.e,.f,.g,.h,.i{font-family:Montserrat-ExtraLight, Montserrat;font-weight:200;}.e,.g,.j,.h,.i{fill:#252a26;}.e,.g,.h,.i{font-size:125px;}.f{fill:#231f20;font-size:44px;}.k{font-size:30px;letter-spacing:.05em;}.k,.j{font-family:ShadowsIntoLight, 'Shadows Into Light';}.k,.l{fill:#a1a1aa;}.g{letter-spacing:0em;}.j{font-size:50px;letter-spacing:.07em;}.m{letter-spacing:-.04em;}.m,.n{fill:#872237;font-family:Montserrat-Black, Montserrat;font-size:132px;font-weight:800;}.o{letter-spacing:0em;}.p{letter-spacing:0em;}.h{letter-spacing:-.01em;}.l{stroke-width:0px;}</style></defs><text transform="translate(36.41 138.5)"><tspan><tspan class="g" x="0" y="0">a</tspan><tspan class="i" x="72.37" y="0">d</tspan><tspan class="m" x="156.5" y="0">V</tspan><tspan class="n" x="254.97" y="0">AN</tspan><tspan class="i" x="467.49" y="0">tu</tspan><tspan class="h" x="599.73" y="0">r</tspan><tspan class="e" x="646.48" y="0">e</tspan></tspan></text><g id="b"><path class="l" d="M772.1,132.97c-.03.99.39.63.47.78-.1-1.66-.58-.74-.47-.78Z"/><polygon class="l" points="771.07 116.6 771.24 116.89 770.81 114.48 771.07 116.6"/><path class="l" d="M771.02,101.29c-.72,1.45.14,5.55-.11,8.27l-.16.45.59,1.23c-.11-3.31-.51-7.62-.32-9.95Z"/><path class="l" d="M772.56,93.12c-.28.5-.25-1.76-.08,1.9.03-.18.05-.24.07-.35,0-.33,0-.78.01-1.56Z"/><path class="l" d="M772.55,94.68c.03,1.61.23-1.06,0,0h0Z"/><path class="l" d="M772.36,87.24l.26,2.12c.17-.44.2-2.33.32-1.63-.15-2.18-.31-1.73-.58-.49Z"/><path class="l" d="M771.82,85.23l.11,1.1c.07-.19.09-.48-.11-1.1Z"/><path class="l" d="M772.17,88.66l-.23-2.33c-.12.31-.35.34.09,1.07-.22-.19,0,.27.15,1.26Z"/><path class="l" d="M772.06,89.98c-.15,1.19-.25,2.73-.51.6.12,4.06.63,3.46.51-.6Z"/><path class="l" d="M770.26,100.51l-.21,1.59.25,1.38c-.12-.69.19-3.07-.04-2.97Z"/><path class="l" d="M772.69,74.01c-.16-.13-.41.72-.61.87l.18,1.57c.1-.81.19-2.33.42-2.44Z"/><path class="l" d="M772.08,74.88l-.28-2.35c-.02,2.1.1,2.48.28,2.35Z"/><polygon class="l" points="771.01 84.85 771.58 88.7 771 84.11 771.01 84.85"/><polygon class="l" points="772.67 65.05 773.04 66.38 772.48 64.01 772.67 65.05"/><path class="l" d="M772.59,59.1c.3.98.5-1.35.68-.31-.06-1.61-.32-2.99-.55-4.23.13,1.32.11,2.72-.13,4.54Z"/><path class="l" d="M772.37,52.47c.07.66.2,1.34.34,2.08-.07-.7-.17-1.39-.34-2.08Z"/><path class="l" d="M771.87,68.54c.09-.18.34-.53.44-1.85l-.43.92c0,.28,0,.6,0,.92Z"/><path class="l" d="M771.85,67.65v-.03c.02-1,.03-1.7.03-1.99,0,.26-.01.87-.03,2.03Z"/><path class="l" d="M771.86,68.77c0-.09,0-.15,0-.23-.04.09-.06.14,0,.23Z"/><path class="l" d="M771.38,78.7c-.25-1.38-.52-4.25-.88-1.47.3.99.51-.61.88,1.47Z"/><path class="l" d="M771.32,69.92l-.09,2.49c.11-.05.28-.5.4.18l-.31-2.68Z"/><polygon class="l" points="771.18 68.7 771.32 69.92 771.36 69 771.18 68.7"/><path class="l" d="M771.98,56.74c-.19-1.08-.21-2.25-.25-3.58-.08,1.43-.12,2.9-.11,4.3.14.2.39.81.36-.72Z"/><path class="l" d="M771.88,62.04c0-.07-.02-.17-.03-.24-.04.15-.05.27.03.24Z"/><path class="l" d="M771.69,40.06c-.03.07-.05.14-.08.21.03.02.05.03.08.05v-.26Z"/><path class="l" d="M771.54,57.7c-.08,1.07.03,1.71.17,2.32-.05-.8-.08-1.65-.09-2.56-.06-.09-.1-.11-.08.24Z"/><path class="l" d="M772.16,48.82c-.09.56-.16,1.19-.23,1.86.14-.55.35-1.66.23-1.86Z"/><path class="l" d="M771.98,61.44c0,.05.01.1.02.16.09-.35.05-.31-.02-.16Z"/><path class="l" d="M771.98,61.44c-.06-.55-.17-.98-.27-1.42.04.65.09,1.26.15,1.78.03-.13.08-.27.12-.36Z"/><path class="l" d="M768.87,36.1c.4.19.79,3,.36,5.44.31,2.39,1.63.82,2.37-1.27-.18-.07-.34-.07-.59-2.54-.22.86-.5,5.47-.87,3.39-.22-3.26.13-2.67.34-4.26-.5,1.35-.75-4.15-1.49-3.43l.27,2.86c-.11.05-.3-.98-.4-.19Z"/><path class="l" d="M771.58,44.97l.05,1.01c.07-1.16.22-1.98.53-3.51-.2-1.69-.35-2.04-.49-2.15l-.04,4.99-.06-.35Z"/><path class="l" d="M771.66,50.53c-.44-.79-.64-3.22-1.11-1.73.04,2.97.38,2.08.57,3.86-.13-4.8.25,1.38.49-2.09.08.94.1,1.79.13,2.59.05-.86.11-1.7.19-2.48-.01.04-.02.07-.03.11v.02s0,0,0,0c-.05.21-.09.28-.06.04,0-.02,0-.07,0-.1-.06-.03-.12-.12-.17-.22.09-1.39.11-.22.17.22.02.02.04.05.07.06v-.02s-.25-4.81-.25-4.81c-.06,1.02-.04,2.29.02,4.55Z"/><path class="l" d="M769.54,74.67c.04-.15.07-.14.1-.15-.06-.31-.09-.43-.1.15Z"/><path class="l" d="M769.8,72.69c.06.35.24.64.2,1.78-.13.99-.21,0-.35.05.12.68.32,2.4.53.25l-.06-.34c.14-1.94.68-4.43.74-4.09-.39.57-.67,1.07-1.06,2.36Z"/><path class="l" d="M770.62,61.47l-.23-4-.37,2.04.23-.1c-.08,2.28.2,1.78.38,2.07Z"/><polygon class="l" points="771.9 39.6 772.37 40.13 771.7 37.82 771.9 39.6"/><polygon class="l" points="771.83 34.4 772.23 34.59 771.98 33.22 771.83 34.4"/><path class="l" d="M484.74,27.66l-1.18.11c.56-.04.91-.07,1.18-.11Z"/><path class="l" d="M493.26,27.69l.21-.2c-.39.11-.56.19-.21.2Z"/><path class="l" d="M650.58,22.7c-1.71-.38-3.63-.96-3.42-.51l.53.44c1.2-.08,2.12-.03,2.9.07Z"/><path class="l" d="M563.06,25.34c.16.04.33.09.5.13.42-.15.81-.3,1.16-.42-.5.09-1.07.19-1.66.29Z"/><path class="l" d="M561.85,27.17l-2.26-.29c.51.1,1.23.19,2.26.29Z"/><path class="l" d="M438.22,28.13l-1.37.45c2.15,0,1.2-.23,1.37-.45Z"/><path class="l" d="M725.08,22.82c-1.48-.17-2.66-.25-3.69-.27,1.78.25,3.22.64,3.69.27Z"/><path class="l" d="M488.09,22.97c-.72.08-1.03.17-1.01.27.74-.08,1.16-.16,1.01-.27Z"/><path class="l" d="M717.12,22.55c.26.03.52.07.78.1,1.08-.07,2.17-.13,3.49-.11-1.32-.19-2.82-.31-4.27,0Z"/><path class="l" d="M269.5,27.77c-.12-.02-.27-.03-.38-.05-.04.06.13.06.38.05Z"/><path class="l" d="M220.35,23.3c.48-.03,1.27-.03,2.02-.03-.36-.03-.97-.03-2.02.03Z"/><path class="l" d="M757.44,22.46c1.1-.03.17-.05,0,0h0Z"/><path class="l" d="M762.81,24.21c-.23.05-.41.11-.44.22.09-.11.24-.17.44-.22Z"/><path class="l" d="M706.13,25.31s-.06,0-.1,0c.33.09.27.07.1,0Z"/><path class="l" d="M759.1,22.66c-.41-.05-.89-.1-1.41-.13.23.03.66.08,1.41.13Z"/><path class="l" d="M758.88,22.45c.38.02.68.03.96.04.14-.07.02-.12-.96-.04Z"/><path class="l" d="M755.9,22.49c.63,0,1.22.01,1.79.05-.22-.03-.31-.05-.25-.07-.32,0-.78.01-1.54.02Z"/><path class="l" d="M359.9,26.58c-.07-.01-.16-.03-.24-.04-1.11.18-.62.15.24.04Z"/><path class="l" d="M621.86,27.3c.05,0,.08-.01.13-.02-.05,0-.12-.01-.16-.02l.04.04Z"/><path class="l" d="M617.89,27.63c1.69-.55,2.65-.48,3.93-.37l-1.31-1.28-2.62,1.64Z"/><path class="l" d="M464.34,27.79l2.78.4c-3.36.65-5.79.43-3.18.99.39-1.39,10.82-.14,11.21-1.53l1.83.29c-.53-.01-.61.07-1.13.05,3.57.66,2.65-1,7.25-.8,1.6.11,2.72.31,1.63.47l3.57-.34c1.04.03.78.27-.25.24l5.45-.11-.04.04c.78-.22,2.54-.55,3.4-.7,1.38.2-.69.15-.34.32l3.02-.34c1.23.36-1.27.71-3.35.66,2.82,1.38,2.5-.35,8.58.46l-2.85.18c1.84.79,4.06.5,7.28.99-.76-.26-6.45-1.23-3.17-1.58.92.1,2.14.15,3.9-.12.02.49,1.74.37,3.9.34l-.15.65c2.33-.19,2.15-.52,3.52-.81,2.6.06,3.14.57,3.75,1,4.16.1-2.87-.81,2.05-.93,3.46.25,5.89-.02,10.03-.41,2.42.22-.42.4.45.59l2.15-.52c.53.01.36.17.27.25,1.81-.2.15-.65,2.99-.83.77-.72,5.84,1.05,9.36.23.87.19-.42.4-.15.65,4.83-.54,4.14-.39,8.11-1.11l3.38.43c-2.48-.49.69-1.07,3.47-1.55-.88-.24-1.63-.44-2.14-.54l4.43-.35c.54.11.09.33-.64.6.3-.06.59-.11.81-.16,1.59.24.76.62-.37.98-.54-.14-1.08-.27-1.6-.4-1.1.4-2.12.84-1.89,1.22.29-.08.84-.14,1.45-.18-.29.11-.47.2-.34.27.15.07.61-.08,1.34-.24l1.01.73.24-.29,5.8.46c4.15-.73,7.76-1.81,14.35-2.11-1.63.53-.35.87-.44,1.5-1.8-.67-5.1.28-8.52.15,1.78.07,1.39.37.94.48l6.09-.61c-.14.52,1.29.39,2.88.6-1.2-1.02,4.54-.68,7.02-.99.15.34-.44.69-3.46.61,3.34.77,4.31-1.2,7.58-.55-.74,0-1.14-.04-1.43.13,1.72-.3,5.94-.06,4.95.24h-.74c4.9.13,14.92.01,15.65-.85.05.11-.64,1.05-.94,1.22l8.74-2.92c-.77.75,2.19,2.52-1.88,2.94,1.17.11,2.61.23,5.07-.03-.8-.11-1.98-1.08-.9-1.15,2.99.83,2.07.44,5.75,1.15-1.19-.16.13-1.33,2.02-1.29-.29.17.16,1.15-.53,1.28l4.69-1.15c-1.17.21-.21.97.84,1.3-.49-.22,4.06.02,5.31-.09l-1.99-.27c5.3.17,5.23-1.61,10.49-1.55-.64.24-1.57,1.46,1.1,1.6,1.23-.59,5.43-2.83,10.08-3.28l.89.34,3.57-.38c-2.22.88-8.46,2.74-11.86,3.47,1.98.27.55.4,3.52.37,1.05.31-1.62.48-2.49.5l6.91.2c-.31-.69,5.29-.69,5.02-1.26l-7.51.71c-.3-.68,4.34-1.95,9.24-1.83,1.25.27-.93,1.22-.83,1.45.64-.24,4.65-.45,5.1-.28l-2.08.37c2.73.26,4.45-.91,7.73-.25,1.13.04,3.38.88,3.57.48-1.84-.78-2.21-3.2-.98-3.79.4.05,5.94.75,7.23,1.13,1.86.61-2.8,1.46-1.21,1.99.07-.19,1.1-.42,1.53-.49,1.19.16-.49.58,2.09.5.43-.7,5.25.06,1.22-.59,2.53-.2,2.68.14,5.65.11-.94-.45,2.66-1.53,5.19-1.73-.15.18.42.41.69.51,5.18.06,7.95.38,12.78.38.44.17,2.77.37,1.78.67.69-.12,1.33-.36,2.82-.38,2.88.6-3.32.09-1.12.82.19-.4,3.85-.56,5.97-.81-.65-.62-4.9-.12-7.02.13,0-.86,3.69-1.76,8.73-2.16,4.01-.21,1.74.56,2.43.43,7.53.15,6.42-1.5,12.67-.88,2.48.55.11,1.09.66,1.49-3.27.21-5.01-.35-7.23-.33l2.73.26c-1.04.18-3.22.32-4.41.16,2.08.49,12.72.09,18.53.55,1.03-.18,2.81-.37,1.97-.59l-1.84.08c-1.69-.44,3.46-.61,1.13-.82,2.49-.31,5.18-.8,8.75-.55.29.21.55.42.77.63-.01-.05-.19-.09-.47-.13-.14-.02-.31-.04-.5-.06-.15-.01-.31-.03-.48-.04-.68-.05-1.47-.05-1.96.05.33-.06.78-.05,1.29-.01.55.06,1.18.12,1.83.19,1.47.14,2.78.25,4.06.04.05.2.11.36.19.48l.09-.77-2.26-.34c.9-.09,1.86-.18,2.87-.27.16,1.32.33,2.87.44,4.6.02.4.05.81.07,1.21l.04.86c.02.58.01,1.16-.02,1.74.31-.7.29-.88.28-1.15,0-.14,0-.3.04-.56.02-.13.06-.29.11-.48.03-.1.06-.2.09-.32.02-.06.04-.12.06-.18l.03-.1.03-.17c-.07.28-.12.27-.17.31-.05.02-.09,0-.12-.08-.07-.18-.1-.77-.13-1.44-.05-1.37-.03-3.37-.04-4.96-1.11,0-2.04.03-2.45.09-.42.07-.32.18.48.37-.69-.21-1.46-.34-2.26-.42-.4-.04-.81-.07-1.22-.1-.37-.02-.74-.04-1.12-.06-1.06-.07-2.2-.13-3.67-.49.09.21,1.04.39-1.54.29-.12.06-.39.14-.57.18-.08,0-.11,0-.17-.02.05,0,.09.02.14.02-.11.03-.12.04.05,0,.62.09,1.11.2,1.32.31-1.28.47-5.39.46-6.78.7-1.53-.1.64-.24-.2-.46l-2.07.37c-.21-.46-4.07-.76-.46-1.03l-3.25-.02c-1.91-.26-4.55-.36-6.17-.17-1.53-.1-3.87.51-2.54.15l-5.1.28-.05-.11c-5.03-.06-10.35.76-16.1-.07-1.69.12-3.44.26-6.27.13l-.55-.4c-2.17.14-6.53-.4-7.46.02-2.34-1.07-10.55-.23-14.37-.42l-.14.52c-2.63-.03-5.15.12-8.42.33l.2.46c-2.82.38-7.24-.33-11.69-.28.3-.17,1.43-.13,2.23-.02-5.32-1.03-11.23.75-16.05,0-1.2.17-2.07.11-2.92,0,.11,0,.21,0,.3-.02-.12,0-.31,0-.49,0-.53-.08-1.08-.16-1.67-.24.5.11.99.2,1.41.25-.93,0-2.33.07-3.71.18l-.59-.49c-.11,0-.2,0-.32.01-1.35-.18-1.09.23-.37.6-.69.08-1.33.18-1.82.3-1.1-.79-3.62.27-5.12-.58-.93.41-6.93.31-7.67,1.18-.05-.11-.45-.17.29-.17-1.54-.1-3.07-.2-4.45.05l-.65-.62-3.36.84c-2.04-.38-2.88-.6-.86-1.08-4.89.74-3.97.28-8.12,1.01l.2-.4c-1.49.02-3.86.56-4.76.22-3.32-.77-16.45-.11-24.98-.82,1.66,1.19-3.97-.53-4.31.39-.5-.28-1.69-.44-.3-.68-4.36.28-6.54-.45-9.55.33-.5-.28.93-.41.49-.58-.35.06-1.38.24-1.84.08-.44-.17.64-.24,1.33-.36-4.45.05-4.9.91-5.22,1.73-2.25-.39-3.38-.33-5.01.2-.78-.27-2.09-.54.67-.64-1.56-.04-9.5-.39-9.66.26-.49-.17-2.17-.05-2.58.03-3.49-.04-3.8-.1-7.22-.04l.95.11c-1.35.79-2.85.18-5.61.27l.08-.08c-6.33-.57-2.73.27-8.98-.38l.34.49c-.58,1.05-5.54-.62-9.16-.22l1.31.28c-1.98.36-5.54-1.43-7.53-1.56-.43-.09.68-.15,1.29-.21-5.21-.62-.67.64-4.56.79-.72-.35.92-.88-1.69-.94-1.3-.28-7.58,1.12-11.14.46.79.27,1.57.53-.24.73-2.76.1-7.47-1.01-9.97-.17-.35-.07-.48-.14-.5-.21-2.11.22-6.86.36-8.14.82-1.95-1.69-13.13.82-13.08-.74l-6.5.08.17-.16c-4.15-.1-5.62.27-7.08.64-.96-.11-.26-.25-.18-.33-6.07-.31-6.67-.25-11.76.53l-.53-.51c-1.38.29-8.77-.79-14.72-.2.06-.06.18-.16.65-.23-6.7.59-16.03-1.4-18.48.44l-4.42.45c5.72.14-.85.8,1.5,1.1-2.25.11-5.81-.56-3.05-.65l.43.09c1.01-.96-7.1-.34-6.95-.99-11.25.05-22.21-.48-32.75-.53l1.21.75-3.68-.04c-.96-.17-1.29-.58,1.33-.55-1.38-.42-4.4.35-4.47.52-5.13-.3,2.01-.87.43-.89l-2.14.06.48.09c-1.73.3-1.89.63-5.04.59-1.99-.15-1.02-.46-1.81-.49,0-.05-.26-.08-1.2-.02l-4.63-.06,1.85.59c-2.05.29-4.35-.03-2.22.64-3.14-1.03-17.27-.37-19.2-.69-2.87.43-5.71.42-9.23.37.87.12,1.4.78-1.63.7,1.11-1.37-5.55-.59-8-1.58,2.19.65-8.62.16-5.18,1.09-2.53-.11-.15-.51-2.07-.83-6.02.53-13.27-.34-20.71-.17-.12.18,1.13.45-.47.72l-3.93-.9c-1.47.09-1.35,1.04-4.04.41.38.15.95.38-.04.44-14.58-.87-29.79.72-44.6-.93,2.01.35.67.38-.86.4,1,.08-.02.44.17.69l-6.2-.68c-1.13.67-6.65.05-7.29.69l1.96-.12c-2.61.76,3.65,1.69,3.27,2.67,2.92-.87,7.71,1.28,12.5.04,1.06.2-.9.31-.34.54,1.22-.42,2.68-.51,5.4-.32l-.31.1c7.64-.1,10.92.31,19.51.59l-.64-.48c1.84.06,2.23.22,3.1.34,2.12-.73-5.18-.04-3.25-.85,2.45.98,13.01.01,14.67,1.13,2.84,0-.83-.56,2.01-.55l.75.3.72-.39c1.86.06,2.8.44,2.87.7-.45-.03-1.28.07-1.77.09,2.41.36,6.8-.12,7.63,0l-2.73-.19c7.75-.28,17.2.11,24.69-.5l-.57-.23c5.72-.42,4.58.25,10.85.06l-.23.05c1.26-.23,2.93-.34,4.65-.32-1.58.27,2.98.52.9.81,6.2-.45,3.07-.36,7.16-1.2l.94.38c1.39-.34,1.51-.52,4.65-.62-2.57.32,2,.58-.88,1.01,6.58.83,9.76-.84,12.78.37,3.02-1.05-5.69-.58-4-.81-1.42-.34,2.49-.78,4.56-.68,2.1.02,3.57,1.34,8.86,1.32-.53,0-.56.07-1.09.07,1.98.27,3.87-.36,6.3.07,1.36-.63,3.15.04,3.54-.77l-4.85.19c2.75-.21,5.32-1.16,9.85-.7-.35.16-1.7.38-2.63.5,1.32.24,2.55-.16,3.92.09-.39.81-5.89.18-8.83.79,1.42.34,5.57-.59,4.09.29,2.13-1.11,5.21.14,8.79-.71l-.24.48c.57-.08,1.74-.3,2.78-.29l-1.89.63c2.9-.54,5.59.47,8.36.18-5.82.01-1.31-.58-3.77-.94,7.18-.65,4.13,1.27,12.16,1.03-1.09.07-4.08-.29-2.38-.52,1.53.1,3.55.29,4.49.54,5.32-.1-.82-.5,1.45-.8,1.81.59,2.61-.24,4.95-.43l.02.49c6.07.32,1.61-1.03,7.07-.64l-2.31.68,2.85-.18-.59.56c3.1-.42,4.06-.31,7.1-.15-.71-.35.4-.89,3.08-.91,1.83.29-1.03.47,2.78.4-.86.31-1.8.69-3.46.24-.17.16-.85.31-1.02.47,1.97.34,4.96.08,6.34.07-.53-.02-1.17-.04-1.49-.12l5.52-.68c.87.18.18.33-.5.48,1.12-.05,1.89-.28,3.54-.32-.43.4-.32.81-2.65,1l5.26-.44c.35.17,2.7.48,2.02.63,2.92.24,7.15-.78,11.02-.47.2-.08.6-.15,1.43-.21,3.63.09,6.85.58,11.16.03l2.44.72c3.37-.16-3.31-.9,2.31-1.17,3.98-.23,1.48.61,2.88.81,1.98-.36,5.42-1.1,9.07-.51-1.21.14-2.16.03-3.29.08ZM505.94,27.47c-.81.1-2.41.42-3,.13.92-.56,1.63-.29,3-.13ZM569.18,26.29c-.6.16-1.53.08-2.57-.1.76-.04,1.62-.02,2.57.1ZM745.34,22.86s-.06.02-.09.02c-1.8-.19-1.16-.12.09-.02ZM749.08,23.08c.38-.07.35-.14.19-.21-.26.12-1.1.13-2.05.1.27.13.75.22,1.86.11ZM348.11,23.27l.73.13c-1.64.14-1.18.01-.73-.13Z"/><path class="l" d="M562.01,26.96c-.23-.08-.29-.17-.34-.27-.32.08-.32.18.34.27Z"/><path class="l" d="M438.47,28.05h-.13c-.07.02-.11.05-.13.08l.25-.08Z"/><path class="l" d="M691.24,27.25c-.77-.07-1.2-.16-1.48-.25-.04.12.31.22,1.48.25Z"/><path class="l" d="M771.59,22.24l-4.25.13c2.02-.02,2.67.08,3.59.16.02-.12-.66-.28.66-.29Z"/><path class="l" d="M769.24,45.65c.06.35,0,.74.07,1.09l.23-.1c-.02-1.49-.21-2.53-.3-.99Z"/><path class="l" d="M770.58,26.39c-.21.24-.27.81-.28,1.58,0,.38.01.86.03,1.29.02.38.04.79.06,1.21,0-.1,0-.2,0-.3.29.25.39-.08.38-.68,0-.24-.03-.82-.06-1.37-.04-.54-.09-1.13-.14-1.72Z"/><path class="l" d="M770.41,30.86c.02.52.03,1.04.02,1.55.23.2.05-.63-.02-1.55Z"/><path class="l" d="M753.81,22.8c.79.11.5-.53.95-.36.89-.53-5.3.64-.95.36Z"/><path class="l" d="M769.22,28.47c.17-.23.34-.49.51-.77-.14-.31-.28-.58-.42-.83l-.09,1.6Z"/><path class="l" d="M759.2,24.86l2.68.14c-.04-.09.3-.14.72-.17-1.65-.02-3.46-.12-3.39.03Z"/><path class="l" d="M762.6,24.83c.86,0,1.68,0,2.15-.08-.46,0-1.47.02-2.15.08Z"/><polygon class="l" points="768.64 25.39 767.95 25.29 766.09 25.25 768.64 25.39"/><path class="l" d="M730.43,24.76l-2.92.15c-.3.18.5.28,1.59.21.7-.12,1.78-.19,1.34-.36Z"/><path class="l" d="M739.26,26.16c-.79-.11-.84-.22-1.29-.39l-.09.63,1.38-.25Z"/><path class="l" d="M730.74,26.31c-.29.18-4.24.5-.54.46.3-.17,3.22-.32.54-.46Z"/><polygon class="l" points="686.72 25.51 687.46 25.5 687.36 24.46 686.72 25.51"/><path class="l" d="M647.92,28c3.46.25.82-.64,3.95-.33.81-.25-2.56-.25-1.72-.47-2.09.26-3.19.11-2.23.8Z"/><path class="l" d="M650.15,27.2c.33-.04.69-.09,1.07-.16-.61.06-.89.11-1.07.16Z"/><polygon class="l" points="212.19 22.74 209.96 22.53 211.4 22.88 212.19 22.74"/><path class="l" d="M207.92,23.51l-.52-.66-1.34.6c.5-.03,1.48-.09,1.86.06Z"/><path class="l" d="M512.13,28.81l.17-.16c-.34-.17-.87-.19-1.91-.21l1.74.37Z"/><polygon class="l" points="481.94 28.31 482.46 28.33 481.48 27.73 481.94 28.31"/><path class="l" d="M456.59,29.08c1.03.02,2.25-.11,3.29-.08-2.25.11-3.57-.66-3.29.08Z"/></g><text class="j" transform="translate(592.06 179.75) scale(1.1 .75)"><tspan x="0" y="0">RICHARD</tspan></text><text class="f" transform="translate(22.04 37.25)"><tspan x="0" y="0">scie</tspan><tspan class="d" x="82.06" y="0">n</tspan><tspan class="o" x="111.58" y="0">c</tspan><tspan class="p" x="135.3" y="0">e</tspan></text><g id="c"><path class="l" d="M530.42,164.8c.92.03.59-.4.73-.48-1.54.11-.69.6-.73.48Z"/><polygon class="l" points="515.22 165.88 515.49 165.7 513.25 166.15 515.22 165.88"/><path class="l" d="M501,165.94c1.35.74,5.15-.15,7.69.11l.42.17,1.14-.61c-3.08.11-7.07.53-9.24.33Z"/><path class="l" d="M493.41,164.36c.47.29-1.64.26,1.77.08-.17-.03-.22-.05-.32-.07-.31,0-.73,0-1.45,0Z"/><path class="l" d="M494.86,164.37c1.5-.03-.98-.24,0,0h0Z"/><path class="l" d="M487.95,164.57l1.97-.27c-.41-.17-2.17-.2-1.52-.33-2.02.15-1.61.32-.45.6Z"/><path class="l" d="M486.08,165.13l1.02-.12c-.18-.07-.45-.1-1.02.12Z"/><path class="l" d="M489.27,164.77l-2.17.24c.29.12.32.36.99-.09-.18.22.25,0,1.17-.15Z"/><path class="l" d="M490.5,164.88c1.11.16,2.54.25.56.52,3.77-.12,3.21-.65-.56-.52Z"/><path class="l" d="M500.28,166.72l1.48.21,1.28-.26c-.64.13-2.85-.19-2.76.05Z"/><path class="l" d="M475.66,164.25c-.12.16.67.42.81.62l1.46-.19c-.75-.11-2.17-.2-2.27-.43Z"/><path class="l" d="M476.47,164.87l-2.18.29c1.95.02,2.3-.11,2.18-.29Z"/><polygon class="l" points="485.73 165.96 489.31 165.37 485.04 165.98 485.73 165.96"/><polygon class="l" points="467.34 164.27 468.57 163.9 466.37 164.47 467.34 164.27"/><path class="l" d="M461.81,164.37c.91-.31-1.26-.51-.29-.7-1.5.06-2.78.33-3.93.57,1.22-.14,2.53-.11,4.22.13Z"/><path class="l" d="M455.66,164.59c.61-.08,1.25-.21,1.93-.35-.65.07-1.29.18-1.93.35Z"/><path class="l" d="M470.58,165.1c-.17-.1-.49-.35-1.72-.45l.86.44c.26,0,.56,0,.86,0Z"/><path class="l" d="M469.75,165.11h-.03c-.93-.02-1.58-.03-1.85-.03.24,0,.8.01,1.88.03Z"/><path class="l" d="M470.8,165.1c-.08,0-.14,0-.22,0,.08.04.13.06.22,0Z"/><path class="l" d="M480.02,165.59c-1.28.26-3.95.54-1.36.91.92-.31-.56-.52,1.36-.91Z"/><path class="l" d="M471.87,165.66l2.32.09c-.05-.12-.46-.29.17-.42l-2.48.33Z"/><polygon class="l" points="470.73 165.8 471.87 165.66 471.01 165.62 470.73 165.8"/><path class="l" d="M459.63,164.99c-1,.2-2.09.22-3.33.26,1.32.08,2.69.12,3.99.11.18-.14.75-.4-.67-.37Z"/><path class="l" d="M464.55,165.09c-.07,0-.16.02-.22.03.14.04.25.05.22-.03Z"/><path class="l" d="M444.13,165.31c.07.03.13.05.2.08.02-.03.03-.05.05-.08h-.24Z"/><path class="l" d="M460.52,165.45c1,.08,1.59-.03,2.16-.17-.74.05-1.53.08-2.38.09-.08.06-.1.11.22.08Z"/><path class="l" d="M452.27,164.82c.52.09,1.11.17,1.73.24-.51-.14-1.54-.36-1.73-.24Z"/><path class="l" d="M463.99,164.99s.1-.01.15-.02c-.33-.09-.29-.05-.15.02Z"/><path class="l" d="M463.99,164.99c-.51.07-.91.18-1.32.28.61-.04,1.17-.09,1.65-.16-.12-.03-.25-.08-.34-.12Z"/><path class="l" d="M440.46,168.21c.17-.42,2.79-.81,5.05-.38,2.22-.32.76-1.68-1.18-2.44-.07.18-.07.35-2.35.61.8.22,5.08.5,3.15.89-3.03.23-2.48-.13-3.96-.35,1.26.51-3.85.77-3.19,1.53l2.66-.28c.05.12-.91.31-.17.42Z"/><path class="l" d="M448.69,165.41l.94-.06c-1.07-.07-1.84-.23-3.26-.55-1.57.21-1.89.37-2,.51l4.64.03-.32.06Z"/><path class="l" d="M453.86,165.33c-.73.46-2.99.66-1.61,1.14,2.76-.05,1.93-.39,3.58-.59-4.46.14,1.28-.26-1.94-.5.88-.08,1.66-.11,2.41-.13-.8-.05-1.58-.11-2.31-.19.04.01.07.02.1.03h.02s0,0,0,0c.19.06.26.09.04.06-.01,0-.07,0-.09,0-.03.06-.11.12-.2.17-1.29-.09-.2-.12.2-.17.01-.02.05-.04.05-.07,0,0-.01,0-.02,0l-4.46.27c.95.06,2.13.04,4.23-.02Z"/><path class="l" d="M476.28,167.48c-.14-.04-.13-.07-.14-.1-.29.06-.4.1.14.1Z"/><path class="l" d="M474.44,167.22c.32-.06.59-.25,1.65-.21.92.13,0,.22.05.37.64-.12,2.22-.34.23-.55l-.32.06c-1.8-.15-4.11-.7-3.8-.76.53.4.99.69,2.19,1.09Z"/><path class="l" d="M464.02,166.39l-3.72.24,1.9.38-.1-.23c2.12.08,1.66-.21,1.92-.39Z"/><polygon class="l" points="443.71 165.09 444.2 164.61 442.05 165.29 443.71 165.09"/><polygon class="l" points="438.87 165.17 439.05 164.75 437.78 165.01 438.87 165.17"/><path class="l" d="M166.19,171.74l-1.09.12c.52-.04.85-.08,1.09-.12Z"/><path class="l" d="M174.1,171.73l.19-.21c-.37.11-.52.2-.19.21Z"/><path class="l" d="M320.18,165.83c-1.59-.38-3.37-.97-3.18-.51l.49.45c1.11-.09,1.96-.04,2.69.05Z"/><path class="l" d="M238.91,168.98c.15.04.31.09.47.14.39-.16.75-.31,1.07-.44-.46.09-.99.2-1.54.31Z"/><path class="l" d="M237.8,170.87l-2.1-.28c.47.1,1.15.19,2.1.28Z"/><path class="l" d="M122.98,172.45l-1.27.47c1.99-.01,1.12-.24,1.27-.47Z"/><path class="l" d="M389.38,165.59c-1.37-.17-2.47-.24-3.43-.26,1.66.25,2.99.64,3.43.26Z"/><path class="l" d="M169.27,166.89c-.67.09-.95.18-.93.28.69-.08,1.08-.17.93-.28Z"/><path class="l" d="M381.98,165.36c.24.04.48.07.73.1,1-.08,2.01-.15,3.24-.13-1.22-.19-2.62-.3-3.97.02Z"/><path class="l" d="M24.68,109.19c.02-.11.03-.25.06-.35-.06-.03-.07.12-.06.35Z"/><path class="l" d="M29.45,63.55c.03.45.02,1.18.03,1.87.03-.34.03-.9-.03-1.87Z"/><path class="l" d="M419.43,165.07c1.02-.04.16-.05,0,0h0Z"/><path class="l" d="M424.42,166.85c-.22.05-.38.12-.41.22.08-.11.23-.18.41-.22Z"/><path class="l" d="M371.79,168.25s-.05,0-.09,0c.31.09.25.07.09,0Z"/><path class="l" d="M420.97,165.27c-.39-.05-.83-.1-1.31-.13.21.03.61.08,1.31.13Z"/><path class="l" d="M420.76,165.06c.35.02.63.03.9.04.13-.08.01-.12-.9-.04Z"/><path class="l" d="M418,165.1c.59-.01,1.13,0,1.66.04-.2-.03-.29-.06-.23-.07-.3,0-.72.02-1.43.03Z"/><path class="l" d="M50.24,171.23c-.07-.01-.15-.03-.22-.04-1.03.19-.58.16.22.04Z"/><path class="l" d="M293.53,170.7s.07-.01.12-.02c-.05,0-.11-.01-.15-.02l.03.04Z"/><path class="l" d="M289.85,171.06c1.56-.58,2.46-.51,3.64-.4l-1.22-1.31-2.42,1.7Z"/><path class="l" d="M147.25,171.97l2.59.4c-3.12.69-5.38.47-2.95,1.03.36-1.43,10.05-.2,10.4-1.63l1.71.29c-.49-.01-.57.07-1.05.06,3.32.67,2.46-1.04,6.73-.86,1.49.1,2.53.3,1.51.48l3.31-.37c.96.02.73.27-.23.25l5.06-.14-.04.04c.72-.23,2.35-.58,3.15-.73,1.29.2-.64.15-.31.33l2.8-.36c1.14.36-1.18.73-3.11.69,2.62,1.41,2.32-.37,7.97.43l-2.64.19c1.71.8,3.77.5,6.76.99-.71-.26-5.99-1.24-2.95-1.61.86.1,1.99.15,3.62-.15.02.51,1.62.37,3.62.33l-.13.67c2.17-.21,1.99-.55,3.26-.86,2.41.05,2.92.57,3.49,1.01,3.87.09-2.67-.82,1.9-.97,3.22.24,5.47-.05,9.32-.47,2.25.22-.39.41.42.6l1.99-.55c.49.01.33.18.25.26,1.68-.22.14-.67,2.78-.87.71-.74,5.43,1.05,8.7.2.81.19-.39.41-.14.67,4.48-.57,3.84-.42,7.53-1.18l3.14.42c-2.31-.49.63-1.1,3.21-1.61-.82-.24-1.52-.45-1.99-.55l4.12-.38c.5.11.08.34-.59.62.28-.06.55-.12.75-.16,1.47.24.71.63-.34,1.01-.5-.14-1-.27-1.49-.41-1.02.41-1.96.87-1.75,1.26.27-.08.78-.15,1.35-.19-.27.11-.43.21-.31.28.14.07.57-.08,1.24-.26l.94.74.23-.3,5.39.44c3.85-.77,7.2-1.9,13.32-2.24-1.52.56-.32.9-.4,1.55-1.67-.68-4.74.32-7.91.19,1.66.06,1.29.38.87.49l5.65-.66c-.12.53,1.2.39,2.68.6-1.12-1.05,4.21-.72,6.51-1.06.14.35-.41.72-3.21.65,3.1.78,4-1.26,7.04-.6-.69.01-1.06-.04-1.33.14,1.6-.32,5.52-.09,4.6.22h-.68c4.55.11,13.86-.05,14.53-.95.05.12-.59,1.08-.87,1.26l8.11-3.05c-.71.77,2.04,2.58-1.73,3.04,1.08.1,2.43.22,4.71-.06-.74-.11-1.85-1.1-.84-1.17,2.78.84,1.93.45,5.35,1.16-1.11-.16.12-1.37,1.87-1.34-.27.18.15,1.19-.49,1.32l4.35-1.2c-1.09.22-.19,1,.79,1.33-.45-.23,3.77,0,4.93-.12l-1.85-.26c4.92.15,4.85-1.69,9.74-1.65-.59.25-1.45,1.51,1.03,1.64,1.13-.61,5.02-2.94,9.34-3.42l.83.34,3.31-.41c-2.06.92-7.84,2.87-11,3.63,1.84.26.52.4,3.27.36.98.32-1.5.5-2.31.52l6.42.18c-.29-.7,4.91-.73,4.66-1.32l-6.97.77c-.29-.7,4.02-2.02,8.57-1.92,1.16.27-.86,1.26-.76,1.5.59-.25,4.32-.49,4.74-.32l-1.93.39c2.53.25,4.13-.96,7.18-.3,1.05.04,3.14.89,3.32.47-1.72-.8-2.07-3.29-.93-3.9.37.05,5.52.74,6.72,1.13,1.73.62-2.59,1.52-1.11,2.05.06-.19,1.02-.44,1.41-.51,1.1.16-.45.6,1.94.5.4-.72,4.88.04,1.13-.61,2.34-.22,2.49.13,5.25.09-.88-.46,2.46-1.59,4.81-1.8-.14.18.39.42.65.52,4.81.04,7.39.35,11.87.33.41.17,2.58.37,1.66.68.64-.13,1.24-.38,2.62-.4,2.68.6-3.08.11-1.04.85.17-.42,3.57-.59,5.54-.86-.61-.64-4.55-.1-6.52.17-.01-.89,3.41-1.83,8.1-2.27,3.72-.24,1.62.56,2.26.43,7,.12,5.95-1.58,11.76-.97,2.31.55.11,1.12.62,1.53-3.03.23-4.66-.33-6.71-.3l2.53.25c-.96.19-2.99.35-4.09.19,1.93.5,11.82.04,17.22.48.96-.19,2.61-.4,1.83-.62l-1.71.09c-1.57-.45,3.21-.65,1.05-.85,2.29-.33,4.85-.85,8.08-.61l.61.64c-.07-.19-2.11-.37-3.01-.17,1.34-.29,4.95.85,6.42,0l-2.26-.43c2.3-.34,5.14-1.03,8-.85-1.3-.63-.66.08-2.69-.66,1.77.92-7.31,0-4.48.96-2.09-.85-3.61-.35-6.34-1.07.09.21.97.4-1.43.31-.11.06-.36.14-.53.19-.07,0-.1,0-.16-.02.05,0,.08.02.13.02-.1.03-.11.04.05,0,.57.09,1.04.2,1.22.32-1.19.49-5,.5-6.29.76-1.42-.09.59-.25-.18-.47l-1.93.39c-.19-.47-3.79-.76-.43-1.06h-3.02c-1.78-.26-4.22-.35-5.73-.15-1.42-.09-3.59.54-2.35.17l-4.73.32-.04-.12c-4.67-.04-9.61.83-14.95,0-1.57.13-3.2.28-5.83.16l-.51-.41c-2.02.15-6.06-.38-6.93.05-2.18-1.09-9.8-.19-13.35-.36l-.13.53c-2.44-.02-4.79.15-7.82.38l.19.47c-2.61.4-6.73-.3-10.86-.23.28-.18,1.33-.14,2.07-.03-4.95-1.04-10.42.83-14.91.08-1.12.18-1.93.12-2.71,0,.1,0,.2-.01.28-.03-.11,0-.28,0-.46,0-.49-.08-1-.17-1.55-.24.47.11.92.2,1.31.25-.86.01-2.17.08-3.45.2l-.55-.5c-.1,0-.19.01-.3.02-1.26-.18-1.01.24-.34.62-.64.09-1.23.19-1.69.31-1.03-.81-3.36.29-4.76-.57-.86.43-6.44.35-7.11,1.25-.04-.12-.42-.17.27-.18-1.43-.09-2.86-.19-4.13.07l-.61-.64-3.11.88c-1.9-.38-2.68-.61-.8-1.11-4.54.78-3.68.31-7.54,1.08l.19-.42c-1.38.02-3.58.59-4.42.25-3.09-.77-15.28-.03-23.21-.72,1.54,1.22-3.69-.53-4,.42-.46-.29-1.57-.44-.29-.7-4.04.31-6.08-.43-8.87.39-.46-.29.86-.43.45-.6-.32.06-1.28.26-1.71.09-.41-.17.59-.25,1.23-.38-4.13.07-4.55.96-4.84,1.8-2.1-.39-3.14-.32-4.65.23-.73-.27-1.95-.55.62-.66-1.44-.03-8.83-.36-8.97.32-.45-.17-2.02-.04-2.4.04-3.24-.02-3.53-.08-6.71,0l.88.11c-1.25.82-2.64.19-5.21.31l.07-.08c-5.89-.55-2.54.29-8.35-.34l.32.5c-.54,1.09-5.15-.61-8.51-.18l1.22.28c-1.84.38-5.15-1.45-7-1.57-.4-.09.64-.15,1.2-.23-4.84-.61-.62.66-4.23.84-.67-.35.85-.91-1.57-.96-1.21-.28-7.03,1.19-10.34.53.73.27,1.46.54-.22.76-2.57.11-6.94-1-9.26-.12-.33-.07-.45-.14-.46-.21-1.96.23-6.37.4-7.55.88-1.82-1.73-12.19.91-12.16-.7l-6.03.12.16-.16c-3.86-.09-5.22.31-6.57.7-.89-.1-.24-.26-.17-.34-5.64-.29-6.2-.22-10.92.6l-.49-.52c-1.28.31-8.15-.77-13.68-.14.05-.06.17-.16.61-.24-6.22.64-14.9-1.37-17.16.54l-4.1.49c5.31.12-.79.83,1.4,1.13-2.09.12-5.4-.54-2.84-.65l.4.09c.94-.99-6.6-.32-6.46-.99-10.45.1-20.63-.39-30.42-.38l1.13.76-3.41-.03c-.9-.17-1.21-.59,1.23-.58-1.28-.43-4.08.39-4.15.55-4.77-.29,1.86-.91.4-.92l-1.99.07.45.09c-1.61.32-1.75.66-4.68.63-1.85-.14-.95-.47-1.68-.49,0-.05-.24-.08-1.12-.02l-4.3-.04,1.72.6c-1.9.31-4.04-.01-2.06.67-.57-.21-1.54-.34-2.74-.43-.79-.09-1.59-.13-2.46-.15.02-.7.03-1.4.03-2.08,0-1.08,0-2.12,0-3.06,0-2.03.01-3.62.11-4.16-.43-2.67-.41-5.31-.35-8.57-.13.81-.81,1.29-.72-1.52,1.4,1.03.63-5.15,1.65-7.43-.68,2.03-.14-8.01-1.1-4.82.12-2.35.53-.14.87-1.92-.52-5.59.4-12.32.24-19.23-.18-.11-.47,1.05-.74-.44l.94-3.65c-.09-1.37-1.06-1.26-.41-3.75-.16.35-.39.88-.45-.04.95-13.54-.63-27.67,1.11-41.42-.37,1.86-.4.62-.4-.8-.09.92-.46-.02-.71.16l.72-5.75c-.69-1.05-.02-6.17-.69-6.78l.11,1.82c-.77-2.43-1.76,3.39-2.76,3.03.88,2.72-1.35,7.15-.09,11.61-.21.98-.32-.84-.56-.31.43,1.13.51,2.49.31,5.02l-.11-.29c.08,7.1-.36,10.14-.67,18.11l.5-.59c-.07,1.71-.23,2.07-.36,2.88.75,1.97.06-4.81.89-3.02-1.02,2.27-.06,12.08-1.22,13.62-.02,2.64.58-.77.56,1.86l-.31.7.4.67c-.07,1.73-.47,2.6-.73,2.66.03-.42-.07-1.19-.09-1.64-.38,2.24.1,6.32-.02,7.09l.2-2.53c.26,7.2-.18,15.98.43,22.93l.24-.53c.41,5.31-.27,4.25-.1,10.08l-.06-.21c.23,1.17.34,2.73.31,4.32-.27-1.47-.54,2.77-.84.84.44,5.76.36,2.85,1.21,6.65l-.39.88c.35,1.3.53,1.41.62,4.32-.33-2.39-.6,1.86-1.03-.82-.12.85-.19,1.63-.23,2.37-.02.37-.03.72-.03,1.06,0,.47,0,.93,0,1.37.03,1.92.15,3.48.22,4.81,2.44-.14,4.05-.18,5.94.36,1.35-.55.29-.69-1.9-.72-1.99-.03-4.25.04-3.08-.08-.71-.17.29-.38,1.57-.53.65-.08,1.37-.14,2.07-.17.69-.04,1.41-.05,1.85-.02,1.95.01,3.32,1.36,8.23,1.32-.49,0-.52.08-1.01.08,1.84.27,3.6-.39,5.85.04,1.26-.66,2.93.02,3.28-.81l-4.5.22c2.55-.23,4.94-1.22,9.15-.77-.33.17-1.58.4-2.44.52,1.23.24,2.37-.17,3.64.07-.36.83-5.47.21-8.2.86,1.32.34,5.17-.63,3.8.28,1.97-1.16,4.84.12,8.16-.77l-.22.5c.53-.08,1.61-.32,2.58-.31l-1.75.66c2.69-.57,5.19.45,7.77.14-5.4.04-1.22-.59-3.5-.95,6.66-.7,3.84,1.28,11.3,1.01-1.01.08-3.79-.28-2.22-.52,1.42.1,3.3.28,4.17.53,4.94-.13-.76-.51,1.34-.83,1.69.6,2.43-.26,4.59-.47l.02.51c5.64.3,1.49-1.06,6.56-.7l-2.14.71,2.64-.2-.54.58c2.87-.44,3.77-.34,6.59-.19-.66-.35.36-.92,2.86-.95,1.7.29-.95.49,2.59.4-.8.32-1.67.72-3.21.26-.16.17-.79.32-.95.49,1.83.34,4.61.05,5.89.04-.49-.02-1.08-.04-1.39-.11l5.12-.73c.81.19.17.34-.46.5,1.04-.06,1.76-.3,3.28-.35-.39.41-.3.84-2.46,1.04l4.88-.48c.33.18,2.51.48,1.88.63,2.71.23,6.64-.83,10.23-.53.19-.08.56-.16,1.32-.22,3.38.08,6.37.57,10.36-.02l2.27.73c3.13-.18-3.08-.91,2.14-1.22,3.69-.25,1.38.62,2.68.82,1.83-.38,5.02-1.16,8.42-.57-1.12.14-2,.04-3.05.1ZM185.88,171.44c-.75.11-2.24.45-2.79.15.85-.58,1.51-.31,2.79-.15ZM244.6,169.92c-.56.17-1.42.09-2.39-.09.7-.05,1.5-.03,2.39.09ZM408.2,165.54s-.05.02-.08.02c-1.67-.19-1.08-.11.08-.02ZM411.66,165.74c.35-.07.32-.14.18-.21-.24.13-1.02.14-1.91.11.25.13.7.22,1.73.1ZM39.27,167.88l.68.13c-1.52.15-1.1.02-.68-.13Z"/><path class="l" d="M237.95,170.65c-.21-.08-.27-.18-.32-.27-.29.09-.3.19.32.27Z"/><path class="l" d="M123.22,172.36h-.12c-.06.03-.1.06-.12.09l.24-.09Z"/><path class="l" d="M357.97,170.32c-.71-.07-1.11-.16-1.38-.25-.04.12.29.23,1.38.25Z"/><path class="l" d="M430.04,164.79l-2.22.14c1.07-.03,1.46.08,2,.16-.05-.12-.47-.29.22-.3Z"/><path class="l" d="M449.33,167.82c.32-.06.69-.01,1.01-.07l-.09-.23c-1.38.02-2.35.22-.92.31Z"/><path class="l" d="M432.1,166.46c.18.43,1.57.27,3.13.19-.09,0-.18,0-.28,0,.46-.6-1.2-.39-2.85-.19Z"/><path class="l" d="M435.59,166.63c.48-.02.97-.04,1.44-.02.18-.24-.58-.05-1.44.02Z"/><path class="l" d="M416.06,165.44c.74.11.46-.55.88-.38.82-.55-4.92.68-.88.38Z"/><polygon class="l" points="433.37 167.86 432.81 167.33 431.94 167.76 433.37 167.86"/><path class="l" d="M421.08,167.53l2.49.13c-.04-.09.28-.14.67-.18-1.53,0-3.21-.11-3.15.05Z"/><path class="l" d="M424.23,167.48c.8,0,1.56,0,2-.1-.43,0-1.36.03-2,.1Z"/><polygon class="l" points="429.97 168.03 429.23 167.93 427.48 167.9 429.97 168.03"/><path class="l" d="M394.35,167.57l-2.71.16c-.28.18.46.29,1.47.21.65-.13,1.66-.2,1.24-.38Z"/><path class="l" d="M402.57,168.97c-.73-.11-.78-.22-1.2-.39l-.08.65,1.28-.26Z"/><path class="l" d="M394.66,169.16c-.27.18-3.94.54-.5.48.27-.18,2.99-.35.5-.48Z"/><polygon class="l" points="353.77 168.55 354.46 168.54 354.35 167.47 353.77 168.55"/><path class="l" d="M317.74,171.3c3.22.24.76-.66,3.67-.36.75-.26-2.38-.25-1.6-.47-1.94.28-2.96.13-2.06.83Z"/><path class="l" d="M319.81,170.47c.31-.04.64-.1.99-.17-.56.07-.83.12-.99.17Z"/><polygon class="l" points="30.05 55.98 30.28 53.91 29.92 55.25 30.05 55.98"/><path class="l" d="M29.28,52.01l.68-.48-.61-1.24c.03.47.08,1.37-.07,1.73Z"/><path class="l" d="M191.63,172.79l.16-.16c-.32-.18-.81-.19-1.77-.21l1.62.37Z"/><polygon class="l" points="163.59 172.42 164.07 172.44 163.16 171.82 163.59 172.42"/><path class="l" d="M140.05,173.33c.96.02,2.09-.12,3.05-.1-2.09.12-3.32-.67-3.05.1Z"/></g><text class="k" transform="translate(527.04 172.68) scale(1.1 .75)"><tspan x="0" y="0">with</tspan></text></svg>